<svg width="32" height="32" viewBox="0 0 32 32" fill="none" xmlns="http://www.w3.org/2000/svg" role="img" aria-label="UNALIGNED">
  <defs>
    <filter id="u-shadow" x="-8%" y="-8%" width="116%" height="116%">
      <feDropShadow dx="0.35" dy="0.55" stdDeviation="0.45" flood-color="#000000" flood-opacity="0.42"/>
    </filter>
  </defs>
  <circle cx="16" cy="16" r="16" fill="#000000"/>
  <g fill="#FFFFFF" filter="url(#u-shadow)">
    <path d="M7.5 8h3.35v2.35l-.6.45.75.38-.8.52.65.55H7.5V8z"/>
    <path d="M21.15 8h3.35v6.25h-3.1l.65-.55-.8-.52.75-.38-.6-.45V8h-.25z"/>
    <path d="M7.5 12.15l.65-.6.8.6-.85.48.75.8h1.75v7.6q4.75 2.7 9.5 0v-7.6h1.75l.75-.8-.85-.48.8-.6.65-.6h-2.65l.55-.5-.75-.38.8-.52-.65-.45v-.55h-3.35v.55l-.65.45.8.52-.75.38.55.5H7.5z"/>
  </g>
</svg>